<mxfile host="app.diagrams.net" agent="Mozilla/5.0 (Windows NT 10.0; Win64; x64) AppleWebKit/537.36 (KHTML, like Gecko) Chrome/131.0.0.0 Safari/537.36" version="24.9.2">
  <diagram name="Page-1" id="jfEx8grGQ0Hr7_uvgtQh">
    <mxGraphModel dx="2109" dy="686" grid="1" gridSize="10" guides="1" tooltips="1" connect="1" arrows="1" fold="1" page="1" pageScale="1" pageWidth="850" pageHeight="1100" math="0" shadow="0">
      <root>
        <mxCell id="0" />
        <mxCell id="1" parent="0" />
        <mxCell id="SwZLVzA1SD-WC2yEMxih-1" value="" style="rounded=0;whiteSpace=wrap;html=1;fillColor=#d5e8d4;gradientColor=#97d077;strokeColor=#82b366;" vertex="1" parent="1">
          <mxGeometry x="40" y="120" width="460" height="330" as="geometry" />
        </mxCell>
        <mxCell id="SwZLVzA1SD-WC2yEMxih-15" style="edgeStyle=orthogonalEdgeStyle;rounded=0;orthogonalLoop=1;jettySize=auto;html=1;entryX=1;entryY=0.5;entryDx=0;entryDy=0;" edge="1" parent="1" source="SwZLVzA1SD-WC2yEMxih-2" target="SwZLVzA1SD-WC2yEMxih-1">
          <mxGeometry relative="1" as="geometry" />
        </mxCell>
        <mxCell id="SwZLVzA1SD-WC2yEMxih-2" value="" style="rounded=1;whiteSpace=wrap;html=1;fillColor=#dae8fc;strokeColor=#6c8ebf;" vertex="1" parent="1">
          <mxGeometry x="680" y="120" width="160" height="70" as="geometry" />
        </mxCell>
        <mxCell id="SwZLVzA1SD-WC2yEMxih-14" style="edgeStyle=orthogonalEdgeStyle;rounded=0;orthogonalLoop=1;jettySize=auto;html=1;entryX=1;entryY=0.5;entryDx=0;entryDy=0;" edge="1" parent="1" source="SwZLVzA1SD-WC2yEMxih-3" target="SwZLVzA1SD-WC2yEMxih-1">
          <mxGeometry relative="1" as="geometry" />
        </mxCell>
        <mxCell id="SwZLVzA1SD-WC2yEMxih-3" value="" style="rounded=1;whiteSpace=wrap;html=1;fillColor=#dae8fc;strokeColor=#6c8ebf;" vertex="1" parent="1">
          <mxGeometry x="680" y="250" width="160" height="70" as="geometry" />
        </mxCell>
        <mxCell id="SwZLVzA1SD-WC2yEMxih-16" style="edgeStyle=orthogonalEdgeStyle;rounded=0;orthogonalLoop=1;jettySize=auto;html=1;entryX=1;entryY=0.5;entryDx=0;entryDy=0;" edge="1" parent="1" source="SwZLVzA1SD-WC2yEMxih-4" target="SwZLVzA1SD-WC2yEMxih-1">
          <mxGeometry relative="1" as="geometry" />
        </mxCell>
        <mxCell id="SwZLVzA1SD-WC2yEMxih-4" value="" style="rounded=1;whiteSpace=wrap;html=1;fillColor=#dae8fc;strokeColor=#6c8ebf;" vertex="1" parent="1">
          <mxGeometry x="680" y="380" width="160" height="70" as="geometry" />
        </mxCell>
        <mxCell id="SwZLVzA1SD-WC2yEMxih-5" value="&lt;b&gt;node_exporter&lt;/b&gt;" style="text;html=1;align=center;verticalAlign=middle;resizable=0;points=[];autosize=1;strokeColor=none;fillColor=none;" vertex="1" parent="1">
          <mxGeometry x="705" y="120" width="110" height="30" as="geometry" />
        </mxCell>
        <mxCell id="SwZLVzA1SD-WC2yEMxih-6" value="&lt;b&gt;node_exporter&lt;/b&gt;" style="text;html=1;align=center;verticalAlign=middle;resizable=0;points=[];autosize=1;strokeColor=none;fillColor=none;" vertex="1" parent="1">
          <mxGeometry x="705" y="250" width="110" height="30" as="geometry" />
        </mxCell>
        <mxCell id="SwZLVzA1SD-WC2yEMxih-7" value="&lt;b&gt;node_exporter&lt;/b&gt;" style="text;html=1;align=center;verticalAlign=middle;resizable=0;points=[];autosize=1;strokeColor=none;fillColor=none;" vertex="1" parent="1">
          <mxGeometry x="705" y="380" width="110" height="30" as="geometry" />
        </mxCell>
        <mxCell id="SwZLVzA1SD-WC2yEMxih-8" value="&lt;b&gt;INSTANCE-1&lt;/b&gt;" style="text;html=1;align=center;verticalAlign=middle;resizable=0;points=[];autosize=1;strokeColor=none;fillColor=none;" vertex="1" parent="1">
          <mxGeometry x="715" y="150" width="90" height="30" as="geometry" />
        </mxCell>
        <mxCell id="SwZLVzA1SD-WC2yEMxih-9" value="&lt;b&gt;INSTANCE-2&lt;/b&gt;" style="text;html=1;align=center;verticalAlign=middle;resizable=0;points=[];autosize=1;strokeColor=none;fillColor=none;" vertex="1" parent="1">
          <mxGeometry x="715" y="280" width="90" height="30" as="geometry" />
        </mxCell>
        <mxCell id="SwZLVzA1SD-WC2yEMxih-10" value="&lt;b&gt;INSTANCE-3&lt;/b&gt;" style="text;html=1;align=center;verticalAlign=middle;resizable=0;points=[];autosize=1;strokeColor=none;fillColor=none;" vertex="1" parent="1">
          <mxGeometry x="715" y="410" width="90" height="30" as="geometry" />
        </mxCell>
        <mxCell id="SwZLVzA1SD-WC2yEMxih-11" value="&lt;b&gt;Prometheus&lt;/b&gt;" style="text;html=1;align=center;verticalAlign=middle;resizable=0;points=[];autosize=1;strokeColor=none;fillColor=none;" vertex="1" parent="1">
          <mxGeometry x="220" y="120" width="90" height="30" as="geometry" />
        </mxCell>
        <mxCell id="SwZLVzA1SD-WC2yEMxih-17" value="&lt;b&gt;TSD&lt;/b&gt;" style="shape=cylinder3;whiteSpace=wrap;html=1;boundedLbl=1;backgroundOutline=1;size=15;fillColor=#e6d0de;gradientColor=#d5739d;strokeColor=#996185;" vertex="1" parent="1">
          <mxGeometry x="375" y="160" width="100" height="90" as="geometry" />
        </mxCell>
        <mxCell id="SwZLVzA1SD-WC2yEMxih-18" value="&lt;b&gt;HTTP&lt;br&gt;Server&lt;/b&gt;" style="rounded=1;whiteSpace=wrap;html=1;fillColor=#fff2cc;gradientColor=#ffd966;strokeColor=#d6b656;" vertex="1" parent="1">
          <mxGeometry x="160" y="172.5" width="130" height="65" as="geometry" />
        </mxCell>
        <mxCell id="SwZLVzA1SD-WC2yEMxih-19" style="edgeStyle=orthogonalEdgeStyle;rounded=0;orthogonalLoop=1;jettySize=auto;html=1;entryX=0;entryY=0.5;entryDx=0;entryDy=0;entryPerimeter=0;" edge="1" parent="1" source="SwZLVzA1SD-WC2yEMxih-18" target="SwZLVzA1SD-WC2yEMxih-17">
          <mxGeometry relative="1" as="geometry" />
        </mxCell>
        <mxCell id="SwZLVzA1SD-WC2yEMxih-21" style="edgeStyle=orthogonalEdgeStyle;rounded=0;orthogonalLoop=1;jettySize=auto;html=1;" edge="1" parent="1" source="SwZLVzA1SD-WC2yEMxih-20" target="SwZLVzA1SD-WC2yEMxih-18">
          <mxGeometry relative="1" as="geometry" />
        </mxCell>
        <mxCell id="SwZLVzA1SD-WC2yEMxih-20" value="" style="html=1;verticalLabelPosition=bottom;align=center;labelBackgroundColor=#ffffff;verticalAlign=top;strokeWidth=2;strokeColor=#0080F0;shadow=0;dashed=0;shape=mxgraph.ios7.icons.user;" vertex="1" parent="1">
          <mxGeometry x="-140" y="155" width="100" height="100" as="geometry" />
        </mxCell>
        <mxCell id="SwZLVzA1SD-WC2yEMxih-22" value="&lt;b&gt;Service&lt;br&gt;Discovery&lt;/b&gt;" style="rounded=0;whiteSpace=wrap;html=1;fillColor=#dae8fc;gradientColor=#7ea6e0;strokeColor=#6c8ebf;" vertex="1" parent="1">
          <mxGeometry x="355" y="350" width="120" height="60" as="geometry" />
        </mxCell>
        <mxCell id="SwZLVzA1SD-WC2yEMxih-23" value="&lt;b&gt;Alert&lt;/b&gt;&lt;div&gt;&lt;b&gt;Manager&lt;/b&gt;&lt;/div&gt;" style="ellipse;whiteSpace=wrap;html=1;aspect=fixed;fillColor=#ffcd28;gradientColor=#ffa500;strokeColor=#d79b00;" vertex="1" parent="1">
          <mxGeometry x="220" y="335" width="90" height="90" as="geometry" />
        </mxCell>
        <mxCell id="SwZLVzA1SD-WC2yEMxih-25" style="edgeStyle=orthogonalEdgeStyle;rounded=0;orthogonalLoop=1;jettySize=auto;html=1;" edge="1" parent="1" source="SwZLVzA1SD-WC2yEMxih-24" target="SwZLVzA1SD-WC2yEMxih-18">
          <mxGeometry relative="1" as="geometry" />
        </mxCell>
        <mxCell id="SwZLVzA1SD-WC2yEMxih-24" value="&lt;b&gt;Grafana&lt;/b&gt;" style="whiteSpace=wrap;html=1;aspect=fixed;fillColor=#f5f5f5;gradientColor=#b3b3b3;strokeColor=#666666;" vertex="1" parent="1">
          <mxGeometry x="90" y="340" width="80" height="80" as="geometry" />
        </mxCell>
        <mxCell id="SwZLVzA1SD-WC2yEMxih-27" style="edgeStyle=orthogonalEdgeStyle;rounded=0;orthogonalLoop=1;jettySize=auto;html=1;" edge="1" parent="1" source="SwZLVzA1SD-WC2yEMxih-26" target="SwZLVzA1SD-WC2yEMxih-24">
          <mxGeometry relative="1" as="geometry" />
        </mxCell>
        <mxCell id="SwZLVzA1SD-WC2yEMxih-26" value="" style="html=1;verticalLabelPosition=bottom;align=center;labelBackgroundColor=#ffffff;verticalAlign=top;strokeWidth=2;strokeColor=#0080F0;shadow=0;dashed=0;shape=mxgraph.ios7.icons.user;" vertex="1" parent="1">
          <mxGeometry x="-120" y="330" width="100" height="100" as="geometry" />
        </mxCell>
      </root>
    </mxGraphModel>
  </diagram>
</mxfile>
